<svg width="512" height="512" viewBox="0 0 512 512" fill="none" xmlns="http://www.w3.org/2000/svg">
  <rect width="512" height="512" rx="128" fill="#1E293B"/>
  <circle cx="256" cy="256" r="128" fill="#F8FAFC"/>
  <path d="M256 128C185.307 128 128 185.307 128 256C128 326.693 185.307 384 256 384C326.693 384 384 326.693 384 256C384 185.307 326.693 128 256 128ZM256 160C309.019 160 352 202.981 352 256C352 309.019 309.019 352 256 352C202.981 352 160 309.019 160 256C160 202.981 202.981 160 256 160Z" fill="#1E293B"/>
  <path d="M256 160V256L352 256" stroke="#1E293B" stroke-width="32" stroke-linecap="round"/>
</svg> 