<svg width="512" height="512" viewBox="0 0 512 512" fill="none" xmlns="http://www.w3.org/2000/svg">
  <rect width="512" height="512" rx="50" fill="#EC5990"/>
  <path d="M410.6 121.7C410.6 121.7 410.6 121.7 410.6 121.7L410.6 121.7C410.6 121.7 410.6 121.7 410.6 121.7Z" fill="white"/>
  <path d="M410.6 121.7L410.6 121.7C410.6 121.7 410.6 121.7 410.6 121.7C410.6 121.7 410.6 121.7 410.6 121.7Z" fill="white"/>
  <path d="M410.6 121.7C410.6 121.7 410.6 121.7 410.6 121.7L410.6 121.7C410.6 121.7 410.6 121.7 410.6 121.7Z" fill="white"/>
  <path d="M109.4 390.3C109.4 390.3 109.4 390.3 109.4 390.3L109.4 390.3C109.4 390.3 109.4 390.3 109.4 390.3Z" fill="white"/>
  <path d="M109.4 390.3L109.4 390.3C109.4 390.3 109.4 390.3 109.4 390.3C109.4 390.3 109.4 390.3 109.4 390.3Z" fill="white"/>
  <path d="M109.4 390.3C109.4 390.3 109.4 390.3 109.4 390.3L109.4 390.3C109.4 390.3 109.4 390.3 109.4 390.3Z" fill="white"/>
  <path fill-rule="evenodd" clip-rule="evenodd" d="M307.7 224.4C307.7 224.4 307.7 224.4 307.7 224.4L307.7 224.4C307.7 224.4 307.7 224.4 307.7 224.4Z" fill="white"/>
  <path fill-rule="evenodd" clip-rule="evenodd" d="M307.7 224.4L307.7 224.4C307.7 224.4 307.7 224.4 307.7 224.4C307.7 224.4 307.7 224.4 307.7 224.4Z" fill="white"/>
  <path fill-rule="evenodd" clip-rule="evenodd" d="M307.7 224.4C307.7 224.4 307.7 224.4 307.7 224.4L307.7 224.4C307.7 224.4 307.7 224.4 307.7 224.4Z" fill="white"/>
  <path fill-rule="evenodd" clip-rule="evenodd" d="M204.3 287.6C204.3 287.6 204.3 287.6 204.3 287.6L204.3 287.6C204.3 287.6 204.3 287.6 204.3 287.6Z" fill="white"/>
  <path fill-rule="evenodd" clip-rule="evenodd" d="M204.3 287.6L204.3 287.6C204.3 287.6 204.3 287.6 204.3 287.6C204.3 287.6 204.3 287.6 204.3 287.6Z" fill="white"/>
  <path fill-rule="evenodd" clip-rule="evenodd" d="M204.3 287.6C204.3 287.6 204.3 287.6 204.3 287.6L204.3 287.6C204.3 287.6 204.3 287.6 204.3 287.6Z" fill="white"/>
  <path fill-rule="evenodd" clip-rule="evenodd" d="M109.4 390.3C109.4 390.3 109.4 390.3 109.4 390.3L109.4 390.3C109.4 390.3 109.4 390.3 109.4 390.3Z" fill="white"/>
  <path fill-rule="evenodd" clip-rule="evenodd" d="M109.4 390.3L109.4 390.3C109.4 390.3 109.4 390.3 109.4 390.3C109.4 390.3 109.4 390.3 109.4 390.3Z" fill="white"/>
  <path fill-rule="evenodd" clip-rule="evenodd" d="M109.4 390.3C109.4 390.3 109.4 390.3 109.4 390.3L109.4 390.3C109.4 390.3 109.4 390.3 109.4 390.3Z" fill="white"/>
  <path fill-rule="evenodd" clip-rule="evenodd" d="M410.6 121.7C410.6 121.7 410.6 121.7 410.6 121.7L410.6 121.7C410.6 121.7 410.6 121.7 410.6 121.7Z" fill="white"/>
  <path fill-rule="evenodd" clip-rule="evenodd" d="M410.6 121.7L410.6 121.7C410.6 121.7 410.6 121.7 410.6 121.7C410.6 121.7 410.6 121.7 410.6 121.7Z" fill="white"/>
  <path fill-rule="evenodd" clip-rule="evenodd" d="M410.6 121.7C410.6 121.7 410.6 121.7 410.6 121.7L410.6 121.7C410.6 121.7 410.6 121.7 410.6 121.7Z" fill="white"/>
  <path fill-rule="evenodd" clip-rule="evenodd" d="M307.7 224.4C307.7 224.4 307.7 224.4 307.7 224.4L307.7 224.4C307.7 224.4 307.7 224.4 307.7 224.4Z" fill="white"/>
  <path fill-rule="evenodd" clip-rule="evenodd" d="M307.7 224.4L307.7 224.4C307.7 224.4 307.7 224.4 307.7 224.4C307.7 224.4 307.7 224.4 307.7 224.4Z" fill="white"/>
  <path fill-rule="evenodd" clip-rule="evenodd" d="M307.7 224.4C307.7 224.4 307.7 224.4 307.7 224.4L307.7 224.4C307.7 224.4 307.7 224.4 307.7 224.4Z" fill="white"/>
  <path fill-rule="evenodd" clip-rule="evenodd" d="M204.3 287.6C204.3 287.6 204.3 287.6 204.3 287.6L204.3 287.6C204.3 287.6 204.3 287.6 204.3 287.6Z" fill="white"/>
  <path fill-rule="evenodd" clip-rule="evenodd" d="M204.3 287.6L204.3 287.6C204.3 287.6 204.3 287.6 204.3 287.6C204.3 287.6 204.3 287.6 204.3 287.6Z" fill="white"/>
  <path fill-rule="evenodd" clip-rule="evenodd" d="M204.3 287.6C204.3 287.6 204.3 287.6 204.3 287.6L204.3 287.6C204.3 287.6 204.3 287.6 204.3 287.6Z" fill="white"/>
  <path d="M410.6 121.7L307.7 224.4L204.3 287.6L109.4 390.3" stroke="white" stroke-width="30" stroke-linecap="round" stroke-linejoin="round"/>
</svg> 